<svg id="svg" version="1.1" viewBox="0 0 300 75.51188100896826" width="300" height="75.51188100896826" xmlns="http://www.w3.org/2000/svg"><g xmlns="http://www.w3.org/2000/svg" id="svg" fill="#000000" fill-rule="evenodd" stroke="none" stroke-width="1" stroke-linecap="butt" stroke-linejoin="miter" stroke-miterlimit="10" stroke-dasharray="" stroke-dashoffset="0" font-family="none" font-weight="none" font-size="none" text-anchor="none" style="mix-blend-mode: normal"><path d="M20.6106,0.8154c-0.64569,0.45852 -1.75185,1.587 -2.45862,2.50756c-0.70638,0.92017 -2.64265,3.2484 -4.30248,5.17292c-1.65983,1.92492 -3.66071,4.27664 -4.44618,5.22578c-0.78586,0.94954 -1.98208,2.30473 -2.6587,3.0115c-0.67623,0.70677 -1.10734,1.48284 -0.95815,1.72444c0.15271,0.24708 0.09711,0.33165 -0.12687,0.19343c-0.40057,-0.24747 -3.47628,3.11331 -3.40306,3.71788c0.11669,0.96246 0.19343,1.10616 0.59008,1.10616c0.23846,0 0.33753,-0.24982 0.22045,-0.55484c-0.23455,-0.61162 0.57403,-1.08893 1.15432,-0.68132c0.20205,0.14135 0.55249,0.68993 0.7796,1.21854l0.41231,0.96089l0.43737,-1.25456c0.37707,-1.08149 0.3481,-1.25495 -0.20792,-1.25495c-0.44403,0 -0.51921,-0.12608 -0.24081,-0.40448c0.72086,-0.72086 1.70721,0.02428 1.75615,1.32739l0.0466,1.23068l0.29876,-1.17468l0.29876,-1.17468l0.0466,1.30038c0.04111,1.15628 0.1116,1.23538 0.63355,0.71343c0.37277,-0.37277 0.58734,-1.33757 0.58734,-2.6403c0,-1.28236 0.22202,-2.29808 0.59204,-2.70687c0.32539,-0.35985 1.26474,-1.95937 2.08742,-3.55499c1.48715,-2.88424 1.50555,-2.90147 3.21707,-3.0256c0.9468,-0.06852 2.27262,-0.02114 2.94689,0.10533l1.2252,0.22985l0.23885,4.98497c0.13117,2.74211 0.30855,5.47403 0.39469,6.07155c0.08575,0.59752 0.00352,1.18056 -0.18286,1.29568c-0.18638,0.11512 -0.3387,0.38412 -0.3387,0.59791c0,0.2134 0.66096,-0.09554 1.46836,-0.6868c1.69977,-1.24438 2.5287,-1.97895 1.70134,-1.50673c-0.36024,0.20557 -0.45695,0.16367 -0.28075,-0.12138c0.14762,-0.23924 0.49454,-0.3481 0.7702,-0.24238c0.27605,0.10572 0.8262,-0.16602 1.22285,-0.60457c0.39665,-0.43816 0.93074,-0.79683 1.18721,-0.79683c0.25647,0 0.75767,-0.32226 1.11399,-0.71617c0.5337,-0.58969 0.64803,-1.62224 0.64803,-5.84915v-5.13337l1.7307,-0.25961c0.95149,-0.14292 2.44922,-0.13822 3.32827,0.01018l1.59757,0.27018v4.86006c0,5.0625 -0.02232,4.99985 1.76203,4.91175c0.7193,-0.03563 0.72478,-0.0141 0.06891,0.26352c-1.16372,0.49337 -0.9464,0.95228 0.50551,1.06661c0.74671,0.05873 1.41158,0.26939 1.47775,0.46792c0.15114,0.45265 2.45078,0.14488 2.45078,-0.32774c0,-0.48789 0.89589,-0.25334 1.38065,0.36102c0.45421,0.5756 2.64187,0.34183 2.85723,-0.30503c0.0881,-0.26391 0.39548,-0.25647 0.91743,0.0231c0.43189,0.23102 0.90216,0.29367 1.04547,0.139c0.14292,-0.15467 0.03994,-0.35985 -0.22946,-0.45578c-0.269,-0.09632 -0.48945,-0.42445 -0.48945,-0.72948c0,-0.68562 -0.63746,-0.72987 -0.94249,-0.06539c-0.12373,0.26939 -0.13078,0.10611 -0.01566,-0.36259c0.13744,-0.55954 -0.03172,-1.00631 -0.49298,-1.30194c-0.64294,-0.41231 -0.64451,-0.43228 -0.01723,-0.23729c0.6821,0.21223 0.99966,-0.36219 0.33753,-0.61084c-0.19108,-0.07166 -1.3086,-1.0114 -2.48328,-2.0882c-1.17468,-1.07679 -2.73662,-2.48798 -3.47041,-3.13641c-0.73379,-0.64803 -3.80089,-3.39562 -6.81591,-6.10562c-3.01502,-2.71 -5.86677,-5.13142 -6.33703,-5.38045c-1.32661,-0.70207 -3.34511,-0.53644 -4.63687,0.38138M45.54681,19.16789c0.47771,0.64608 1.09402,1.17468 1.37007,1.17468c0.27566,0 0.44755,0.22045 0.38216,0.48945c-0.06578,0.26939 -0.04542,0.3575 0.04464,0.19578c0.3062,-0.54701 0.96755,-0.29759 0.74553,0.28114c-0.29054,0.75689 0.47066,1.2064 1.05173,0.62102c0.34732,-0.35045 0.27762,-0.39156 -0.29406,-0.17346c-0.53448,0.20361 -0.66565,0.14958 -0.45656,-0.18834c0.18208,-0.29485 -0.3481,-1.05291 -1.40414,-2.00832c-2.03377,-1.83916 -2.62934,-2.00127 -1.43938,-0.39195M180.1285,18.26926c-0.56816,0.08771 -1.97112,0.72204 -3.1184,1.41001c-2.89012,1.73305 -4.2551,4.037 -4.79937,8.10258l-0.41936,3.13288h-1.67823c-1.6567,0 -1.67784,0.01723 -1.67784,1.37047c0,1.36303 0.0094,1.37047 1.76203,1.37047h1.76203v11.15951v11.15951h2.54515h2.54515v-11.15951v-11.15951h3.13249h3.13249v-1.37047v-1.37047h-3.13249h-3.13249v-2.71548c0,-3.00445 0.4221,-4.47868 1.66061,-5.80099c0.68719,-0.73379 1.23929,-0.88101 3.30204,-0.88101h2.47702v-1.76203v-1.76203l-1.66414,0.05873c-0.91508,0.03211 -2.12892,0.13 -2.69668,0.21732M249.15846,18.467c-1.90769,0.34692 -2.06666,0.45499 -1.80549,1.22598c0.45969,1.35519 0.69424,12.39645 0.26352,12.39645c-0.20792,0 -1.23694,-0.38491 -2.2875,-0.85517c-4.51901,-2.02359 -10.13557,-0.58225 -13.12045,3.36704c-3.87881,5.1322 -3.59532,13.99676 0.59361,18.56354c2.14497,2.33841 4.32088,3.2715 7.6194,3.26719c2.89207,-0.00352 4.34203,-0.43737 6.20038,-1.85483c0.68641,-0.52352 1.32661,-0.95189 1.42254,-0.95189c0.09593,0 0.39352,0.52861 0.66096,1.17468c0.4687,1.13161 0.57834,1.17468 2.98409,1.17468c1.37399,0 2.49777,-0.09672 2.49777,-0.21536c0,-0.11825 -0.30816,-0.77882 -0.68523,-1.46836c-0.62454,-1.14179 -0.68367,-2.8075 -0.66918,-18.77538c0.0184,-19.97473 0.48593,-17.80587 -3.67441,-17.04859M189.57962,18.65299c-1.93823,0.73574 -2.88268,2.97704 -2.10621,5.00024c0.2972,0.77412 2.15672,1.77965 3.29147,1.77965c1.26435,0 3.12192,-2.06588 3.12192,-3.47198c0,-2.07175 -2.50169,-3.99275 -4.30718,-3.30791M82.27255,20.06613c-4.96657,1.41354 -7.42048,4.51823 -7.42048,9.38886c0,2.0647 0.18834,2.77304 1.12222,4.22182c1.67119,2.59292 2.9281,3.58866 7.8837,6.24502c4.79663,2.57139 6.0136,3.48372 6.88953,5.16744c0.63355,1.21737 0.71538,3.35138 0.18286,4.75238c-1.49224,3.92423 -9.25064,4.55151 -14.1992,1.14767l-1.99696,-1.3736l0.2506,1.51534c0.13744,0.83363 0.25217,2.0044 0.25452,2.60193c0.00509,1.3223 0.80348,1.69115 5.41686,2.50286c8.92173,1.56977 16.12333,-2.92418 16.12333,-10.06157c0,-4.49591 -2.52596,-7.1738 -10.90812,-11.56556c-2.01537,-1.05565 -4.0789,-2.41202 -4.58519,-3.01424c-2.05139,-2.43786 -1.53805,-6.4361 0.99927,-7.78542c2.66967,-1.41941 8.13273,-0.78821 11.0299,1.27492l1.18252,0.84225l-0.13156,-2.48133l-0.13196,-2.48133l-1.76203,-0.5243c-2.59919,-0.77373 -8.08692,-0.97421 -10.19979,-0.37316M4.27309,21.00392c-0.37668,0.09867 -0.68523,0.32382 -0.68523,0.50002c0,0.17659 -0.29837,0.43581 -0.66331,0.5756c-0.58147,0.22319 -0.57364,0.15584 0.06069,-0.54545c0.39822,-0.44012 1.00514,-0.7796 1.34854,-0.75454c0.50746,0.03681 0.49611,0.0791 -0.06069,0.22436M36.11997,21.22359c0.09006,0.05364 0.69189,0.5384 1.33797,1.07679l1.17468,0.9789l-0.94915,-1.07679c-0.52234,-0.59204 -1.12417,-1.07679 -1.33797,-1.07679c-0.21379,0 -0.31521,0.04425 -0.22554,0.09789M44.31026,21.47223c0,0.35123 1.17664,0.95659 1.40884,0.72478c0.06696,-0.06735 -0.22241,-0.33713 -0.64334,-0.59987c-0.42093,-0.26313 -0.7655,-0.31912 -0.7655,-0.12491M46.58641,22.17626c0.28232,0.11316 0.62023,0.09907 0.75023,-0.03093c0.13,-0.13 -0.10102,-0.22241 -0.51373,-0.20557c-0.45617,0.01879 -0.54897,0.1116 -0.2365,0.2365M39.8073,23.08351c0.13313,0.21536 0.40762,0.39156 0.61044,0.39156c0.20283,0 0.36846,-0.1762 0.36846,-0.39156c0,-0.21536 -0.27488,-0.39156 -0.61044,-0.39156c-0.33557,0 -0.50159,0.1762 -0.36846,0.39156M38.8284,23.23152c0,0.08105 0.30855,0.3896 0.68523,0.68523c0.62102,0.48671 0.63472,0.47301 0.14801,-0.14801c-0.51177,-0.65234 -0.83324,-0.85948 -0.83324,-0.53722M0.40524,23.96452c-0.02741,0.05364 -0.09163,0.49611 -0.14253,0.98282c-0.0787,0.75571 -0.00039,0.81484 0.53957,0.40409c1.02902,-0.78195 1.05917,-0.83912 0.29485,-0.56385c-0.54662,0.19696 -0.67231,0.11434 -0.50198,-0.3293c0.17973,-0.46792 0.01527,-0.8955 -0.18991,-0.49376M105.90408,24.84593c-0.46165,0.32304 -1.11947,1.43233 -1.46248,2.46488c-0.97969,2.94924 -1.59326,3.60393 -3.37722,3.60393c-1.5036,0 -1.54393,0.03602 -1.54393,1.37047v1.37047h1.93314h1.93275l0.12295,9.69115c0.11355,8.97459 0.18051,9.76829 0.90568,10.73505c1.25848,1.67706 2.63717,2.28437 5.18702,2.28437c1.67001,0 2.80397,-0.25334 4.02408,-0.89824c1.93157,-1.02158 2.13597,-1.3642 1.39631,-2.34076c-0.42798,-0.56502 -0.72165,-0.61945 -1.57878,-0.29367c-1.66335,0.63237 -2.82982,0.47418 -4.01429,-0.54427l-1.09872,-0.94445v-8.7467v-8.7467l3.23038,-0.11355l3.23038,-0.11394v-1.33875v-1.33875l-3.23038,-0.11394l-3.23038,-0.11355l0.12922,-3.23038c0.12687,-3.1693 0.11199,-3.23038 -0.7937,-3.23038c-0.50786,0 -1.30077,0.2643 -1.76203,0.58773M28.45202,26.2066c-4.40194,1.13161 -7.45612,4.35769 -8.4315,8.90529c-0.76159,3.55146 0.38021,6.75052 4.30248,12.05266c0.79683,1.07679 2.27771,3.08433 3.29108,4.46145l1.84308,2.50325l-0.1112,3.95751l-0.11081,3.95712l-2.34937,0.09711c-1.29215,0.05325 -2.93006,0.19461 -3.63996,0.31482l-1.29098,0.21771l0.11629,2.42612l0.1159,2.42612l1.56625,0.19578c1.3595,0.16994 1.58269,0.33792 1.68998,1.27258c0.11708,1.01767 0.0372,1.07679 -1.46092,1.07679c-1.82037,0 -2.13166,0.57716 -1.91904,3.55538l0.12373,1.7307l5.28608,0.11199c5.00298,0.10611 5.32289,0.06735 5.97131,-0.7283c0.61514,-0.75493 0.68523,-1.9304 0.68523,-11.51504v-10.67436l1.8838,-2.88933c5.19446,-7.96632 6.31119,-10.81728 5.60834,-14.31706c-0.61945,-3.08472 -1.4711,-4.61651 -3.66228,-6.58646c-2.77108,-2.49151 -6.18158,-3.40698 -9.50751,-2.55181M34.85483,30.63438c5.05467,3.34472 4.5476,10.77225 -0.9049,13.24888c-4.39959,1.99892 -9.78747,-0.78978 -10.57921,-5.47521c-0.58656,-3.47315 1.83564,-7.6844 4.96813,-8.63824c2.06979,-0.63002 4.80681,-0.26665 6.51598,0.86457M127.12554,30.40493c-2.01145,0.26626 -5.03509,1.24243 -6.33429,2.04473l-1.24399,0.76824l0.62806,1.96368l0.62806,1.96407l1.44565,-1.30625c1.83525,-1.65787 3.85649,-2.32509 6.32529,-2.08781c2.92966,0.28153 3.60393,1.16059 3.77465,4.92036l0.13822,3.04165l-3.26836,0.7287c-6.52303,1.45426 -9.23067,3.00015 -10.33918,5.90318c-0.77608,2.03142 -0.43385,3.95281 1.03646,5.82213c2.40967,3.06319 8.50041,3.14933 11.70339,0.16524l0.88023,-0.81993l0.93975,1.20092c0.51686,0.66017 1.46562,1.31604 2.10817,1.45739c1.58073,0.34732 3.89134,-0.46674 4.28251,-1.5083c0.26783,-0.71225 0.12765,-0.90725 -0.90803,-1.26748l-1.22441,-0.42563l-0.19578,-8.97185c-0.1762,-8.07048 -0.27527,-9.10968 -0.98556,-10.34232c-1.31604,-2.28398 -5.56996,-3.75664 -9.39082,-3.25074M212.81646,30.52827c-1.75811,0.35985 -4.62826,1.69546 -5.02569,2.3388c-0.45695,0.73927 -0.91978,0.40253 -1.38495,-1.0071l-0.46361,-1.40414l-2.40575,0.2737c-1.32309,0.15036 -2.46762,0.32969 -2.5428,0.399c-0.07557,0.06891 0.14488,1.24986 0.48945,2.62385c0.49141,1.96055 0.6265,4.62199 0.6265,12.36043v9.86187h2.54515h2.54515v-10.12696v-10.12735l2.40106,-1.07758c3.14072,-1.40923 5.35695,-1.24086 7.14208,0.5431l1.2248,1.22441l0.12256,9.78199l0.12295,9.78238h2.54907h2.54907l-0.12647,-10.27849c-0.12334,-9.97856 -0.15388,-10.32587 -1.05408,-11.89643c-1.57369,-2.74602 -5.36988,-4.07929 -9.31447,-3.2715M267.76351,30.68098c-5.32602,1.46444 -8.48592,6.39694 -8.48592,13.24692c0,3.59414 1.00083,6.64872 2.8768,8.77999c2.25579,2.56277 4.78018,3.65014 8.47848,3.65249c3.5546,0.00196 5.12867,-0.40213 7.55127,-1.93823c2.00284,-1.27062 2.10582,-1.4664 1.32974,-2.52831c-0.49454,-0.67623 -0.58695,-0.66996 -2.18022,0.14292c-5.19876,2.65205 -10.7934,0.53879 -12.33732,-4.66037c-0.34575,-1.16372 -0.62846,-2.5244 -0.62846,-3.02403v-0.90764h8.26822h8.26861l-0.28271,-2.64108c-0.54153,-5.05545 -2.45822,-8.30385 -5.68195,-9.62967c-2.11874,-0.87162 -5.06328,-1.07405 -7.17654,-0.49298M189.44218,30.81254c-1.76203,0.13744 -1.87754,0.21066 -1.59718,1.00631c0.16602,0.47183 0.37198,6.09975 0.45734,12.50687l0.15506,11.64896h2.51892h2.51892v-12.72575v-12.72575l-1.07679,0.07048c-0.59243,0.03876 -1.93157,0.13744 -2.97626,0.21888M287.56792,30.8098c-0.91547,0.08262 -1.66414,0.21927 -1.66414,0.30424c0,0.08458 0.2643,1.16881 0.58734,2.40889c0.44873,1.72248 0.58734,4.6404 0.58734,12.35338v10.09837h2.54515h2.54515v-9.38103v-9.38103l1.69859,-0.99535c1.27806,-0.74906 2.24717,-0.99535 3.91562,-0.99535h2.21702v-2.34937v-2.34937h-1.40923c-2.07723,0 -4.03504,1.09833 -5.39376,3.02599c-1.01101,1.43429 -1.24634,1.59405 -1.47932,1.00396c-0.15232,-0.38608 -0.28936,-1.17194 -0.30463,-1.74636c-0.04307,-1.64299 -0.43463,-2.28907 -1.34188,-2.21506c-0.46165,0.03759 -1.58778,0.13587 -2.50325,0.2181M142.36708,32.77466c0.50433,1.02315 1.92687,4.32676 3.16069,7.34178c2.98801,7.30027 5.18271,12.61181 5.9161,14.31823c0.56933,1.32465 0.54701,1.52905 -0.43581,3.98414c-1.28041,3.19788 -3.07258,5.11027 -5.44662,5.81117c-0.98713,0.29171 -1.79453,0.6543 -1.79453,0.80623c0,0.15153 0.45617,0.81797 1.01375,1.48049c2.18844,2.60075 5.85854,0.96207 8.10063,-3.61685c0.87553,-1.78748 11.65601,-29.22029 12.30052,-31.29987c0.18599,-0.60026 -0.08027,-0.68523 -2.15241,-0.68523c-2.32548,0 -2.3713,0.02114 -2.76012,1.27258c-3.02442,9.73148 -5.624,17.52199 -5.8468,17.52042c-0.15349,-0.00078 -1.30938,-2.86427 -2.56864,-6.36288c-1.25887,-3.4986 -2.81376,-7.72669 -3.45436,-9.39552l-1.16529,-3.0346h-2.89207h-2.89207l0.91704,1.85992M272.41644,33.49631c1.57251,0.74632 2.80632,3.07689 2.98683,5.64123l0.12413,1.76203l-5.58602,0.10885l-5.58602,0.10846l0.25138,-1.67471c0.36454,-2.42651 1.98404,-5.234 3.43165,-5.94782c1.57173,-0.77568 2.74054,-0.7749 4.37805,0.00196M245.93004,34.52572l1.79648,0.89198l0.1065,7.82301c0.12217,8.9836 0.2087,8.75767 -3.68303,9.64103c-3.68734,0.83716 -6.3523,-0.39078 -8.05325,-3.71083c-1.04077,-2.03103 -1.45661,-8.31794 -0.70559,-10.66066c0.66487,-2.07254 2.19784,-4.03661 3.67363,-4.70657c1.61245,-0.73183 4.5613,-0.42171 6.86525,0.72204M132.40575,47.84978c-0.00352,1.77691 -0.14175,3.44378 -0.30738,3.70456c-0.49258,0.7749 -3.06867,1.67941 -4.78214,1.67941c-3.89016,0 -4.95404,-5.23244 -1.44525,-7.10998c1.16725,-0.62493 4.1486,-1.42646 5.46385,-1.46953l1.07679,-0.03485l-0.00587,3.23038M11.16026,55.39204c-4.57266,4.36983 -6.17375,5.67294 -6.9698,5.67294c-1.33405,0 -3.20924,0.97499 -3.72336,1.93627c-0.96677,1.80627 -0.50433,3.0902 2.06079,5.71876c1.35519,1.38926 2.78244,2.52557 3.17165,2.52557c1.19583,0 3.37017,-2.49699 3.37017,-3.8702c0,-1.47423 0.51921,-2.04356 7.5031,-8.22906c3.66697,-3.24761 5.30801,-4.95325 5.21795,-5.42313c-0.07205,-0.37668 -0.14449,-0.88689 -0.16093,-1.13318c-0.01684,-0.24668 -0.54153,-0.99535 -1.16607,-1.66414c-2.04395,-2.18805 -2.63913,-1.9026 -9.3035,4.46615"/></g></svg>